<?xml version="1.0" standalone="no"?>
<!DOCTYPE svg PUBLIC "-//W3C//DTD SVG 20010904//EN"
 "http://www.w3.org/TR/2001/REC-SVG-20010904/DTD/svg10.dtd">
<svg version="1.0" xmlns="http://www.w3.org/2000/svg"
 width="700.000000pt" height="700.000000pt" viewBox="0 0 700.000000 700.000000"
 preserveAspectRatio="xMidYMid meet">
<metadata>
Created by potrace 1.11, written by Peter Selinger 2001-2013
</metadata>
<g transform="translate(0.000000,700.000000) scale(0.100000,-0.100000)"
fill="#000000" stroke="none">
<path d="M2555 6622 c-7 -7 42 -42 59 -42 9 0 16 -5 16 -10 0 -6 12 -15 26
-21 53 -19 201 -153 242 -218 9 -14 22 -30 29 -34 7 -4 13 -15 13 -22 0 -8 5
-15 11 -15 5 0 7 -4 4 -10 -3 -5 -3 -10 2 -10 12 0 56 -87 49 -98 -3 -5 -22
-6 -43 -3 -47 9 -154 3 -263 -14 -19 -3 -46 -8 -60 -10 -31 -5 -140 -33 -160
-42 -8 -3 -18 -7 -22 -7 -3 -1 -10 -4 -14 -8 -4 -5 -14 -8 -21 -8 -20 0 -219
-100 -242 -122 -11 -10 -23 -18 -27 -18 -7 0 -102 -79 -138 -114 -19 -19 -20
-19 -40 5 -18 21 -29 25 -76 23 -30 -1 -62 -4 -70 -7 -8 -2 -34 -10 -57 -17
-24 -7 -43 -17 -43 -22 0 -4 -7 -8 -15 -8 -18 0 -89 -32 -93 -43 -2 -4 -8 -5
-13 -1 -5 3 -9 1 -9 -5 0 -6 -7 -8 -15 -5 -8 4 -15 1 -15 -6 0 -6 -4 -9 -8 -6
-5 3 -15 -3 -24 -13 -9 -11 -26 -17 -42 -16 -19 2 -32 -5 -51 -28 -33 -42 -37
-47 -57 -78 -9 -14 -24 -33 -33 -42 -8 -9 -16 -20 -16 -24 0 -26 -13 -52 -23
-46 -6 3 -8 2 -3 -2 4 -5 0 -19 -8 -32 -9 -13 -13 -23 -9 -23 4 0 1 -7 -6 -15
-7 -8 -9 -15 -5 -15 4 0 3 -6 -2 -12 -6 -7 -14 -26 -18 -43 -11 -40 -12 -44
-15 -52 -1 -5 -2 -12 -1 -17 1 -4 -2 -13 -8 -20 -5 -6 -12 -33 -15 -60 -4 -27
-9 -53 -12 -57 -4 -7 -13 -86 -17 -146 0 -13 -3 -23 -7 -23 -3 0 -6 -15 -7
-32 -5 -71 -6 -78 -12 -78 -4 0 -7 -10 -8 -22 -1 -32 -16 -137 -28 -197 -8
-42 -24 -182 -28 -243 -1 -16 -4 -28 -7 -28 -3 0 -6 -10 -6 -22 -1 -13 -5 -77
-9 -143 -5 -66 -9 -163 -9 -215 -1 -84 2 -101 25 -145 38 -72 96 -155 103
-148 3 4 6 1 6 -5 0 -6 13 -25 29 -41 16 -16 27 -32 25 -34 -3 -2 11 -18 31
-36 20 -17 32 -31 29 -31 -7 0 28 -33 126 -123 17 -15 35 -27 40 -27 6 0 10
-4 10 -10 0 -5 7 -10 15 -10 8 0 15 -4 15 -10 0 -5 5 -10 10 -10 5 0 19 -9 30
-20 11 -11 27 -20 36 -20 8 0 12 -5 9 -10 -3 -5 1 -10 9 -10 9 0 16 -4 16 -10
0 -5 9 -10 20 -10 11 0 20 -5 20 -11 0 -6 7 -9 15 -5 9 3 15 0 15 -9 0 -8 5
-15 11 -15 12 0 31 -20 49 -51 7 -13 1 -26 -30 -58 -22 -23 -42 -41 -45 -41
-3 0 -14 -9 -25 -20 -11 -11 -18 -20 -16 -20 3 0 -14 -20 -37 -43 -58 -60 -96
-106 -137 -163 -19 -27 -38 -50 -42 -52 -4 -2 -8 -10 -8 -18 0 -8 -4 -14 -10
-14 -5 0 -10 -6 -10 -12 0 -7 -11 -26 -25 -42 -13 -16 -27 -38 -31 -50 -4 -11
-19 -36 -33 -55 -14 -19 -24 -35 -22 -35 2 -1 -10 -31 -28 -68 -17 -37 -31
-72 -31 -78 0 -5 -5 -10 -11 -10 -5 0 -7 -4 -4 -10 3 -5 1 -10 -4 -10 -6 0
-10 -3 -8 -8 2 -8 -45 -154 -53 -162 -6 -6 -10 -25 -13 -61 -1 -15 -5 -25 -8
-23 -4 2 -12 -20 -18 -49 -13 -59 -13 -59 -28 -107 -7 -19 -13 -46 -15 -60 -2
-14 -6 -27 -10 -30 -4 -3 -10 -39 -13 -80 -3 -42 -11 -77 -18 -82 -6 -4 -7 -8
-2 -8 6 0 3 -5 -5 -10 -8 -5 -15 -14 -15 -19 0 -6 -8 -16 -17 -23 -10 -7 -18
-24 -17 -38 0 -14 2 -58 3 -99 1 -48 6 -76 14 -79 7 -2 12 -13 12 -23 0 -11 4
-18 9 -14 10 6 41 -21 41 -35 0 -5 -4 -12 -10 -15 -14 -8 -3 -117 12 -127 7
-4 10 -8 6 -8 -11 0 53 -63 95 -94 21 -15 41 -25 44 -22 3 3 23 -4 43 -15 29
-16 39 -29 43 -55 6 -34 63 -104 86 -104 6 0 11 -5 11 -11 0 -5 4 -8 9 -5 5 4
11 1 13 -4 2 -6 17 -13 33 -16 17 -3 63 -16 104 -30 41 -14 80 -23 88 -20 7 3
13 2 13 -3 0 -10 143 -6 160 4 13 8 89 17 130 14 14 -1 33 -2 43 -2 9 -1 17
-5 17 -10 0 -5 9 -7 20 -4 10 3 20 1 22 -5 2 -5 19 -11 38 -13 19 -2 51 -6 70
-10 19 -3 67 -8 105 -10 39 -2 87 -6 109 -10 97 -14 165 -19 356 -22 225 -3
225 -3 258 -21 12 -7 26 -10 31 -7 5 3 11 1 13 -4 1 -6 17 -12 33 -15 17 -3
51 -12 77 -20 27 -8 45 -10 42 -5 -3 6 11 3 33 -7 50 -22 201 -24 214 -3 7 11
9 11 9 1 0 -10 4 -9 16 2 8 9 20 14 25 11 5 -4 9 -1 9 5 0 6 5 8 10 5 6 -3 10
-2 10 4 0 6 7 8 15 5 8 -4 15 -1 15 7 0 7 3 9 7 6 3 -4 12 -2 20 4 9 8 79 12
213 11 110 0 200 3 200 6 0 4 53 7 117 7 171 1 424 13 618 31 39 4 88 8 110 9
22 2 63 6 90 10 28 5 59 8 70 7 11 -1 36 3 55 8 20 5 51 12 70 14 19 3 62 10
95 17 33 6 70 11 83 12 12 1 22 4 22 8 0 3 21 9 48 13 49 6 129 28 195 52 20
8 37 11 37 8 0 -4 6 -1 13 5 8 6 16 8 20 5 3 -3 18 3 33 13 16 10 28 17 29 15
0 -2 9 0 20 3 28 10 39 13 45 12 3 0 16 6 30 13 14 8 27 15 30 15 18 2 120 50
120 57 0 4 11 8 25 8 16 0 25 6 25 15 0 8 4 15 10 15 21 0 117 111 148 172 18
36 38 65 45 66 36 4 84 13 97 18 8 3 55 8 105 11 49 3 92 8 95 11 3 4 12 7 20
7 44 1 109 19 114 31 5 14 -5 22 -84 60 -44 22 -45 22 -15 24 17 1 37 2 47 1
9 -1 19 3 23 9 3 6 -3 10 -14 10 -30 0 -27 -1 -70 15 -22 7 -42 11 -45 8 -3
-3 -11 -1 -18 4 -7 6 -26 13 -43 16 -55 9 -78 16 -89 27 -5 5 -23 10 -38 10
-15 0 -28 5 -28 11 0 6 -7 9 -15 5 -8 -3 -15 -1 -15 5 0 6 -4 8 -9 5 -5 -3
-14 1 -21 9 -7 8 -17 12 -22 9 -6 -4 -13 -2 -17 3 -3 5 -41 24 -83 42 -43 19
-78 38 -78 44 0 6 -3 8 -6 4 -6 -6 -107 52 -112 65 -2 4 -8 8 -14 8 -8 0 -49
28 -96 65 -65 52 -202 211 -202 234 0 6 -4 11 -9 11 -5 0 -15 12 -23 27 -7 16
-25 46 -38 68 -14 22 -24 42 -23 45 1 3 -2 10 -7 15 -4 6 -8 24 -9 40 -2 32
-8 80 -11 80 -1 0 -4 11 -6 25 -2 13 -8 27 -12 30 -7 5 -10 14 -17 52 -3 15
-32 66 -45 78 -3 3 -11 17 -19 33 -8 15 -18 27 -23 27 -4 0 -8 7 -8 15 0 9 -7
18 -15 21 -8 4 -12 10 -9 15 3 5 0 9 -5 9 -6 0 -11 8 -11 18 0 10 -4 22 -8 27
-4 6 -23 46 -41 90 -18 44 -37 89 -42 100 -10 25 -69 194 -75 215 -2 8 -14 45
-28 82 -21 60 -22 69 -8 80 8 7 17 11 20 9 2 -2 13 2 24 10 29 21 128 118 128
127 0 4 6 14 13 22 7 8 22 37 34 65 16 36 18 52 10 57 -9 6 -9 8 -1 8 13 0 13
93 0 121 -4 9 -8 27 -10 41 -1 13 -5 28 -7 33 -3 6 -6 22 -7 37 -1 15 -10 59
-21 98 -11 38 -17 70 -14 70 3 0 0 7 -7 15 -7 8 -9 15 -5 15 4 0 3 6 -2 13 -5
6 -15 31 -23 54 -7 23 -22 52 -32 63 -10 11 -16 20 -12 20 4 0 -3 9 -16 20
-13 11 -20 20 -16 20 4 0 -2 13 -13 29 -12 16 -21 33 -21 39 0 5 -7 16 -17 23
-9 8 -25 33 -35 56 -10 23 -24 48 -31 55 -22 24 -57 95 -49 102 4 4 0 6 -8 4
-8 -1 -14 3 -12 10 1 6 -2 12 -7 12 -5 0 -12 14 -16 30 -4 17 -11 30 -16 30
-5 0 -9 9 -9 20 0 11 -5 20 -12 20 -6 0 -8 3 -5 7 4 3 0 14 -9 24 -8 9 -16 24
-18 32 -1 8 -9 25 -17 38 -9 13 -22 39 -30 57 -8 17 -17 32 -21 32 -5 0 -8 9
-8 21 0 11 -4 17 -10 14 -9 -6 -15 17 -10 40 6 33 5 62 -3 73 -5 6 -6 12 -3
12 4 0 -2 10 -14 22 -11 12 -20 30 -20 40 0 10 -4 18 -8 18 -4 0 -8 10 -9 22
-4 42 -26 123 -39 143 -8 11 -14 27 -14 36 0 38 -142 292 -217 387 -53 68
-215 222 -233 222 -5 0 -10 4 -10 9 0 5 -33 23 -72 40 -40 17 -66 31 -58 31 8
1 24 4 35 6 29 8 57 12 78 13 14 1 16 5 7 20 -11 21 -62 61 -83 65 -7 2 -37
10 -67 19 -30 9 -75 20 -100 24 -70 12 -305 7 -305 -7 0 -1 -16 -3 -34 -6 -19
-2 -45 -11 -58 -19 -12 -8 -29 -15 -38 -15 -8 0 -15 -4 -15 -10 0 -5 -4 -10
-9 -10 -9 0 -35 58 -32 73 0 4 -4 7 -9 7 -6 0 -10 7 -10 16 0 42 -149 210
-245 275 -27 19 -52 37 -55 41 -8 10 -193 98 -207 98 -6 0 -24 5 -40 12 -67
27 -269 48 -288 30z"/>
</g>
</svg>
